<svg version="1.2" xmlns="http://www.w3.org/2000/svg" viewBox="0 0 1024 1024" width="1024" height="1024">
	<style>
		.s0 { fill: #fefefd } 
		.s1 { fill: #109ad9 } 
	</style>
	<g id="Background">
		<path id="Path 0" class="s0" d="m0 512v512h1024v-1024h-1024z"/>
		<path id="Path 1" class="s1" d="m208 84.09c-3.57 0.47-11 2.02-16.5 3.44-5.5 1.41-14.28 4.46-19.5 6.76-5.22 2.3-13.32 6.59-18 9.54-4.68 2.96-11.2 7.52-14.5 10.14-3.3 2.63-9.82 8.78-14.5 13.67-4.67 4.88-11.04 12.7-14.14 17.37-3.1 4.67-7.21 11.64-9.13 15.49-1.91 3.85-4.7 10.37-6.19 14.5-1.49 4.12-3.67 11.32-4.84 16l-2.14 8.5c-0.59 593.56-0.58 595.06 1.46 607 1.13 6.6 3.41 16.05 5.08 21 1.66 4.95 5.5 13.73 8.52 19.5 3.02 5.77 8.06 14.03 11.19 18.34 3.13 4.32 9.74 11.87 14.69 16.78 4.95 4.91 12.82 11.67 17.5 15.01 4.68 3.34 13.9 8.71 20.5 11.93 6.6 3.21 16.05 6.99 21 8.4 4.95 1.4 13.72 3.24 19.5 4.07 9.25 1.34 46.06 1.49 308.5 1.22l298-0.29c14.73-3.39 23.05-5.79 28-7.52 4.95-1.73 13.05-5.23 18-7.77 4.95-2.55 13.27-7.84 18.5-11.75 5.23-3.91 13.55-11.34 18.5-16.52 4.95-5.17 11.32-12.78 14.17-16.9 2.84-4.13 7.65-12.67 10.69-19 3.05-6.33 6.71-15.55 8.14-20.5 1.43-4.95 3.26-13.27 4.05-18.5 1.24-8.16 1.41-51.36 1.17-306-0.26-280.87-0.37-296.9-2.07-304-0.98-4.13-3.16-11.55-4.84-16.5-1.68-4.95-4.86-12.6-7.06-17-2.2-4.4-6.76-12.05-10.12-17-3.37-4.95-10.85-13.76-16.63-19.57-6.71-6.76-14.11-12.97-20.5-17.19-5.5-3.65-13.83-8.41-18.5-10.6-4.67-2.19-12.1-5.13-16.5-6.54-4.4-1.4-11.15-3.33-15-4.29-6.55-1.61-26.39-1.74-308.5-1.9-165.82-0.09-304.43 0.21-308 0.68z"/>
		<path id="Path 2" fill-rule="evenodd" class="s0" d="m510 120.15c186.59-0.09 286.4 0.21 294 0.89 6.33 0.57 14.88 1.89 19 2.95 4.13 1.05 9.3 2.64 11.5 3.54 2.2 0.89 6.7 3 10 4.69 3.3 1.68 8.7 4.88 12 7.1 3.3 2.21 9.41 7.44 13.58 11.6 4.16 4.17 9.39 10.28 11.61 13.58 2.22 3.3 5.61 9.15 7.53 13 1.93 3.85 4.43 9.93 5.58 13.5 1.14 3.57 2.53 8.97 3.08 12 0.66 3.56 1.22 100.32 1.61 274.5 0.37 164.95 0.24 279.44-0.35 296-0.76 21.36-1.37 28.57-2.93 34.5-1.09 4.12-3.48 11.1-5.31 15.5-1.84 4.4-5.54 11.37-8.23 15.5-2.7 4.12-9.46 12-15.04 17.5-6.83 6.73-12.91 11.63-18.61 15-4.65 2.75-12.3 6.42-16.99 8.17-4.69 1.74-12.02 3.88-16.28 4.75-6.94 1.42-32.8 1.58-489.75 1.58l0.5-217.36 27-16.3c14.85-8.97 27.23-16.31 27.5-16.31 0.27-0.01-2.79 15.85-6.81 35.23-5.29 25.55-7.15 36.41-6.75 39.49 0.35 2.62 1.61 5.45 3.31 7.38 1.51 1.73 3.99 3.75 5.5 4.5 1.51 0.76 4.55 1.37 6.75 1.37 2.2 0 5.35-0.67 7-1.5 1.65-0.83 4.12-2.96 5.49-4.75 2-2.62 3.56-8.38 8.04-29.75 3.05-14.58 7.62-36.62 10.15-49 2.92-14.3 5.18-23.08 6.21-24.09 0.88-0.88 22.31-13.65 47.61-28.39 25.3-14.73 50.39-29.43 65.5-38.52l0.08 142.5-10.79 8.11c-5.93 4.46-24.18 18.07-40.54 30.25-18.07 13.45-30.53 23.42-31.75 25.39-1.1 1.79-2.27 4.6-2.61 6.25-0.34 1.65-0.06 4.8 0.62 7 0.68 2.2 2.19 5.06 3.36 6.35 1.17 1.28 3.37 2.97 4.88 3.75 1.51 0.77 4.55 1.4 6.75 1.4 2.2 0 5.01-0.39 6.25-0.87 1.24-0.49 15.98-11.07 63.25-46.17l0.5 56.77c0.44 50.21 0.69 57.12 2.15 59.77 0.9 1.65 2.48 3.76 3.5 4.69 1.02 0.93 3.65 2.44 5.85 3.35 2.76 1.15 5.24 1.46 8 0.99 2.2-0.37 5.27-1.42 6.82-2.35 1.55-0.92 3.8-3.26 5-5.18 2.16-3.46 2.19-4.08 3.18-117.94l10.5 7.69c5.77 4.23 18.37 13.53 28 20.66 9.62 7.12 19.52 14.23 22 15.79 3.23 2.03 5.77 2.83 9 2.82 2.48-0.01 6.08-0.85 8-1.87 1.92-1.02 4.53-3.38 5.78-5.25 1.61-2.41 2.28-4.86 2.28-8.4 0-3.56-0.67-6.01-2.33-8.5-1.28-1.92-4.55-5.19-7.28-7.25-2.72-2.07-21.04-15.57-76.45-56.25v-73.25c0-40.29 0.23-73.25 0.5-73.25 0.27 0 6.69 3.54 14.25 7.86 7.56 4.33 32.65 18.77 55.75 32.1 23.1 13.33 42.3 24.53 42.66 24.89 0.36 0.36 2.48 9.42 4.7 20.15 2.23 10.73 7 33.9 10.6 51.5 5.43 26.54 6.97 32.55 9.04 35.25 1.38 1.79 3.85 3.92 5.5 4.75 1.65 0.83 4.91 1.51 7.25 1.53 2.78 0.02 5.44-0.76 7.7-2.25 1.9-1.25 4.5-3.86 5.78-5.78 1.67-2.51 2.32-4.91 2.3-8.5-0.01-2.75-3.17-20.3-7.03-39-3.86-18.7-7.24-34.56-7.51-35.25-0.27-0.69-0.15-1.26 0.26-1.27 0.41-0.01 20.55 11.32 44.75 25.17 24.2 13.86 46.48 26.55 49.5 28.21 3.51 1.92 6.95 3.02 9.5 3.02 2.2 0.01 5.58-0.89 7.5-1.99 1.92-1.1 4.53-3.55 5.78-5.45 1.49-2.25 2.27-4.9 2.25-7.69-0.02-2.34-0.66-5.49-1.44-7-0.78-1.51-2.69-3.92-4.25-5.35-1.56-1.43-11.84-7.78-22.84-14.12-11-6.34-32.83-18.84-48.5-27.78-15.67-8.94-28.6-16.31-28.73-16.38-0.12-0.06 15.18-5.9 34-12.97 18.83-7.07 35.47-13.71 36.98-14.75 1.51-1.05 3.71-3.81 4.87-6.15 1.61-3.22 1.99-5.34 1.56-8.75-0.31-2.48-1.41-5.62-2.46-7-1.05-1.37-3.44-3.53-5.31-4.78-2.38-1.59-4.85-2.27-8.16-2.25-3.55 0.02-13.4 3.2-39 12.59-18.84 6.91-40.21 14.78-60.75 22.44l-23.75-13.83c-13.06-7.6-37.14-21.44-53.5-30.75-16.37-9.3-29.42-17.22-29-17.58 0.41-0.36 20.1-11.88 43.75-25.6 23.65-13.72 47.73-27.74 64-37.36l16 6.01c8.8 3.31 27.25 10.05 41 14.97 13.75 4.93 28.15 10.17 32 11.64 5.31 2.04 8.09 2.56 11.5 2.15 2.48-0.29 5.63-1.38 7-2.43 1.38-1.05 3.53-3.44 4.78-5.31 1.5-2.24 2.27-4.86 2.25-7.66-0.02-2.34-0.66-5.49-1.43-7-0.78-1.51-2.47-3.73-3.75-4.94-1.29-1.2-8.2-4.44-15.35-7.2-7.15-2.76-21.77-8.24-32.5-12.19-10.73-3.95-20.62-7.6-22-8.11-2.44-0.9-2.38-0.99 2.5-3.69 2.75-1.52 23.45-13.45 46-26.52 22.55-13.06 43.39-25.4 46.31-27.42 3.02-2.1 5.92-5.08 6.75-6.93 0.79-1.79 1.44-5.05 1.44-7.25 0-2.2-0.61-5.24-1.37-6.75-0.75-1.51-2.77-3.99-4.5-5.5-1.72-1.51-4.82-3.03-6.88-3.38-2.06-0.34-5.1-0.2-6.75 0.32-1.65 0.52-14.02 7.39-27.5 15.28-13.48 7.88-35.41 20.79-48.75 28.68-13.34 7.89-24.25 13.9-24.25 13.35 0-0.55 3.23-17.09 7.18-36.75 3.95-19.66 7.21-38.3 7.25-41.43 0.05-4.19-0.45-6.38-1.93-8.38-1.1-1.48-3.12-3.56-4.5-4.61-1.37-1.05-4.3-2.18-6.5-2.52-2.98-0.45-5.15-0.06-8.5 1.56-2.48 1.19-5.38 3.39-6.45 4.89-1.4 1.97-4.93 17.54-23.05 107.57l-3.5 2.21c-1.92 1.22-18.58 10.9-37 21.51-18.42 10.61-42.61 24.61-74 42.95l0.03-149.5 31.74-22.47c17.45-12.35 35.89-25.52 40.98-29.25 5.09-3.73 10.15-8.24 11.25-10.03 1.17-1.9 1.99-5.01 2-7.5 0-2.34-0.79-5.91-1.75-7.93-0.96-2.02-3.33-4.69-5.25-5.93-1.92-1.24-5.08-2.55-7-2.91-2.16-0.41-4.84-0.12-7 0.74-1.92 0.77-17.11 11.16-33.75 23.09-16.64 11.93-30.48 21.69-30.75 21.69-0.27 0-0.51-25.09-0.51-55.75-0.02-53.51-0.1-55.92-2-60-1.35-2.87-3.37-5.05-6.24-6.73q-4.25-2.47-8.75-2.46c-2.81 0-5.94 0.84-8.33 2.22-2.11 1.22-4.81 3.79-6 5.72-2.15 3.47-2.17 4-2.67 118l-28.75-20.68c-15.81-11.38-30.55-21.72-32.75-22.99-2.5-1.44-5.69-2.32-8.5-2.35-3.06-0.02-5.61 0.69-7.95 2.24-1.9 1.25-4.5 3.85-5.78 5.78-1.34 2.01-2.32 4.99-2.31 7 0 1.93 0.57 5.07 1.25 7 0.94 2.65 3.55 5.19 10.78 10.5 5.24 3.85 24.04 17.35 74.04 53l-0.03 144.5-5.25-3.04c-2.89-1.66-19.2-10.97-36.25-20.69-17.05-9.71-40.45-23.08-73-41.79l-4.21-20.49c-2.31-11.27-6.7-32.64-9.76-47.49-3.05-14.85-6.2-28.8-6.98-31-0.78-2.2-3.03-5.46-4.99-7.25-2.08-1.9-5.11-3.51-7.31-3.87-2.06-0.34-5.32-0.15-7.25 0.42-1.93 0.58-4.96 2.66-6.75 4.62-1.89 2.09-3.51 5.15-3.88 7.33-0.42 2.55 0.7 10.3 3.51 24.25 2.27 11.27 5.59 27.58 7.38 36.24 1.78 8.65 3.13 15.74 2.99 15.75-0.14 0-10.26-5.76-22.5-12.82-12.24-7.05-30.01-17.18-56.75-32.17l-0.01-4.25c-0.01-2.34-0.72-7.18-1.57-10.75-0.85-3.57-3.2-9.65-5.22-13.5-2.22-4.22-6.27-9.59-10.19-13.51-3.93-3.93-9.29-7.97-13.51-10.19-3.85-2.02-9.7-4.38-13-5.24-3.3-0.86-9.82-1.57-14.5-1.57-4.68 0-11.2 0.69-14.5 1.53-3.3 0.84-8.93 2.96-12.5 4.71-3.69 1.82-9.31 5.87-13 9.39-3.57 3.4-8.07 8.8-10 12-1.93 3.19-4.5 8.75-5.72 12.35-1.71 4.99-2.24 8.88-2.26 16.53-0.02 5.77 0.61 12.54 1.49 16 0.84 3.3 2.98 8.93 4.76 12.5 2.03 4.09 5.83 9.13 10.23 13.6 5.19 5.25 8.94 8.02 14.5 10.66 4.13 1.95 8.29 3.82 9.25 4.15 1.65 0.56 1.75 5.73 1.75 89.84-0.01 86.21 0.06 89.5 2 96.5 1.1 3.99 3.53 10.29 5.39 14 1.87 3.71 5.38 9.45 7.81 12.75 2.43 3.3 6.86 8.07 9.86 10.6 2.99 2.53 13.45 10.63 41.03 31.4l-0.09 221.5-42.25-0.3c-40.19-0.28-42.64-0.41-50.25-2.53-4.4-1.23-12.95-4.68-19-7.65-6.73-3.31-14.3-8.08-19.5-12.27-4.68-3.77-11.57-10.65-15.32-15.3-4.12-5.1-8.99-12.81-12.28-19.45-3-6.05-6.68-15.5-10.9-31v-588l2.27-9.5c1.25-5.22 3.85-13.1 5.77-17.5 1.92-4.4 4.94-10.41 6.72-13.36 1.78-2.95 5.73-8.35 8.77-12 3.05-3.65 9.35-9.72 14-13.47 5.28-4.26 12.62-8.86 19.47-12.21 6.05-2.95 14.82-6.32 19.5-7.48 4.68-1.17 12.55-2.47 17.5-2.91 4.95-0.43 136.13-0.84 291.5-0.92zm-266.5 208.99c1.1-0.09 4.25 0.5 7 1.31 2.75 0.8 6.8 2.97 9 4.82 2.2 1.85 5.03 5.36 6.28 7.8 1.6 3.1 2.3 6.23 2.33 10.43 0.03 3.3-0.58 7.57-1.36 9.5-0.78 1.92-2.95 5.24-4.83 7.38-1.88 2.13-4.66 4.49-6.17 5.25-1.51 0.75-4.89 1.86-7.5 2.46-3.78 0.86-5.88 0.77-10.25-0.45-3.39-0.95-7.18-3-9.89-5.34-2.41-2.09-5.33-5.6-6.47-7.8-1.52-2.93-2.09-5.9-2.11-11.08-0.03-6.16 0.36-7.71 3.01-12 2.07-3.36 4.77-5.95 8.5-8.16 3-1.78 6.59-3.4 7.96-3.6 1.38-0.2 3.4-0.43 4.5-0.52zm49.47 57.97c0.27-0.06 9.49 5.2 20.5 11.7 11.02 6.49 27.1 15.83 35.73 20.75 8.64 4.92 15.39 9.23 15 9.59-0.38 0.36-14.88 6.61-32.2 13.89-17.32 7.28-32.96 14.3-34.75 15.6-1.86 1.35-3.94 4.18-4.85 6.61-1 2.64-1.37 5.58-1 7.75 0.33 1.92 1.5 4.96 2.6 6.75 1.1 1.79 3.46 4.15 5.25 5.25 1.9 1.17 5.01 1.99 7.5 2 3.05 0 9.98-2.36 24.5-8.34 11.14-4.59 31.61-12.91 70.75-28.66l59 33.75c32.45 18.56 58.98 33.98 58.96 34.25-0.01 0.27-6.65 4.3-14.75 8.95-8.09 4.65-34.73 20.09-103.71 60.18l-18.5-7.24c-10.18-3.98-29.98-11.91-44-17.61-14.02-5.71-27.3-10.65-29.5-10.98-3.06-0.46-5.14-0.04-8.88 1.8-2.68 1.32-5.7 3.75-6.7 5.4-1.01 1.65-2.13 4.35-2.49 6-0.36 1.65-0.18 4.58 0.41 6.5 0.6 1.92 2.11 4.8 3.37 6.4 1.26 1.59 4.31 3.91 6.79 5.15 2.48 1.24 17.55 7.48 33.5 13.87 15.95 6.38 29.08 11.71 29.18 11.84 0.09 0.13-9.77 6.09-21.93 13.24-12.16 7.15-23.49 13.84-28.25 16.73l-19.5-14.42c-10.73-7.92-21.24-16.41-23.37-18.86-2.14-2.45-5.16-7.15-6.73-10.45-1.56-3.3-3.3-9.15-3.85-13-0.61-4.24-1.01-39.28-1.03-171l8.74-3.98c7.28-3.31 9.99-5.25 16.24-11.64 4.13-4.22 7.71-7.72 7.97-7.77z"/>
	</g>
</svg>