<svg version="1.2" xmlns="http://www.w3.org/2000/svg" viewBox="0 0 1024 1024" width="1024" height="1024">
	<style>
		.s0 { fill: #fefefe } 
		.s1 { fill: #0894d1 } 
	</style>
	<g id="Background">
		<path id="Path 0" class="s0" d="m0 512v512h1024v-1024h-1024z"/>
		<path id="Path 1" class="s1" d="m76 347.03c-4.13 0.44-10.2 1.76-13.5 2.92-3.3 1.16-8.02 3.3-10.5 4.76-2.48 1.45-7.24 5.38-10.58 8.72-4 4-7.34 8.63-9.79 13.57-2.37 4.8-4.24 10.56-5.19 16-1.26 7.24-1.44 24.49-1.21 116l0.28 107.5c3.44 10.08 6.14 15.87 8.21 19.37 2.08 3.5 6.27 8.68 9.32 11.5 3.05 2.82 8.22 6.57 11.5 8.33 3.28 1.76 8.21 4 10.96 4.97 4.65 1.65 12.73 1.8 116.25 2.05 95.27 0.24 112.29 0.07 118.5-1.21 3.99-0.81 10.62-3.14 14.75-5.16 5.37-2.63 9.5-5.69 14.53-10.76 3.87-3.9 8.45-9.79 10.19-13.09 1.74-3.3 3.86-8.92 4.71-12.5 1.34-5.65 1.54-20.7 1.57-115 0.02-106.29-0.02-108.66-2.03-116.5-1.14-4.4-3.27-10.25-4.75-13-1.48-2.75-5.84-8.16-9.7-12.03-3.99-4-9.61-8.38-13.02-10.16-3.3-1.73-8.7-3.94-12-4.92-5.57-1.65-13.65-1.79-113.5-1.97-59.13-0.11-110.88 0.16-115 0.61zm415.48 53.22c-0.26 0.69-7.03 19.48-15.06 41.75-8.02 22.28-16.77 46.58-19.43 54-2.66 7.43-6.85 19.13-9.32 26-2.47 6.88-7.79 21.78-11.83 33.12-4.04 11.35-7.57 20.88-7.84 21.2-0.27 0.31-4.33 1.38-9 2.37l-8.5 1.81-0.5 15.5c13.56 0.39 29.42 0.5 44 0.5h26.5c0.41-11.62 0.19-15.31-0.23-15.68-0.43-0.38-6.4-1.46-13.27-2.41-6.88-0.95-12.61-1.77-12.75-1.82-0.14-0.05 1.94-6.39 4.6-14.09 2.67-7.7 5.82-17.04 7-20.75l2.15-6.75 70.25 0.5c12.01 31.78 15.44 41.09 15.38 41.19-0.07 0.1-5.87 1-12.89 2l-12.77 1.81 0.03 16.5 84.5-0.5 0.5-15.5c-5.81-1.45-9.94-2.47-12.92-3.19l-5.41-1.31c-9.98-27.9-23.57-66.15-36.65-103-13.08-36.85-24.51-68.69-25.4-70.75l-1.62-3.75c-34.23 0-39.17 0.31-39.52 1.25zm136.02-0.58c-0.46 0.36-0.77 4.3-0.68 8.75l0.15 8.08c16.69 2.72 22.32 3.51 23.28 3.51 1.65-0.01 1.75 4.39 1.75 78.49 0 62.12-0.26 78.5-1.25 78.52-0.69 0.01-5.98 0.69-11.75 1.52-5.78 0.83-10.84 1.83-11.27 2.23-0.42 0.4-0.64 4.11-0.5 8.23l0.27 7.5h91l0.5-16.5-24.02-3.5 0.02-156.5c12.79-1.64 18.2-2.43 20.27-2.81l3.77-0.69-0.04-17.5c-70.27 0-91.04 0.3-91.5 0.67zm170 49.44c-3.3 0.48-9.15 1.81-13 2.97-3.85 1.16-10.6 3.96-15 6.23-5.84 3.01-10.17 6.29-16.03 12.16-6.47 6.47-8.96 9.88-12.77 17.53-2.61 5.23-5.68 13.1-6.82 17.5-1.62 6.2-2.09 11.04-2.09 21.5 0 10.51 0.47 15.27 2.11 21.5 1.15 4.4 3.75 11.38 5.76 15.5 2.67 5.48 5.7 9.55 11.25 15.09 5.86 5.87 9.53 8.55 16.09 11.75 4.67 2.28 11.42 4.93 15 5.87 4.62 1.23 10.25 1.71 19.5 1.68 10.26-0.03 14.79-0.52 21.5-2.32 4.67-1.25 11.65-3.67 15.5-5.38 3.85-1.72 9.59-4.6 12.75-6.4 3.16-1.81 6-3.85 6.3-4.54 0.31-0.69-0.71-4.35-2.25-8.14-1.54-3.79-3.14-7.05-3.55-7.25-0.41-0.2-2.21 0.52-4 1.59-1.79 1.08-6.63 3.21-10.75 4.74-6.65 2.46-8.87 2.78-19.5 2.79-11 0.02-12.46-0.2-17.5-2.66-3.03-1.47-7.79-5.07-10.59-8-2.81-2.93-6.47-8.02-8.15-11.32-1.68-3.3-3.78-9.49-4.66-13.75-0.95-4.59-1.6-12.64-1.6-19.75 0-6.93 0.66-15.28 1.57-19.75 0.86-4.26 3-10.86 4.75-14.66 1.98-4.29 4.72-8.26 7.25-10.5 2.27-2 6.24-4.21 9-4.99 3.1-0.88 6.6-1.15 9.43-0.73 2.47 0.37 6.41 1.57 8.75 2.65 4.16 1.94 4.31 2.18 7.2 11.73 1.62 5.36 3.58 12 4.35 14.75l1.41 5c23.13 0.5 23.29 0.47 23.3-1.75 0-1.24 0.67-11.7 1.47-23.25 1.16-16.52 1.21-21.15 0.25-21.72-0.68-0.4-5.06-1.61-9.73-2.69-4.67-1.09-11.99-2.45-16.25-3.03-4.26-0.58-11.46-1.01-16-0.94-4.54 0.07-10.95 0.51-14.25 0.99zm131 1.37c-3.3 0.73-8.48 2.25-11.5 3.38-3.03 1.14-8.31 3.88-11.75 6.1-3.44 2.22-8.18 5.95-10.54 8.29-2.35 2.34-6.1 6.95-8.31 10.25-2.22 3.3-5.01 8.14-6.22 10.75-1.2 2.61-3.12 8.01-4.28 12-1.46 5.06-2.25 11.33-2.61 20.75-0.33 8.48-0.07 16.29 0.7 21 0.68 4.13 2.28 10.42 3.57 14 1.28 3.58 3.56 8.75 5.07 11.5 1.51 2.75 5.93 8.2 9.81 12.11 4.95 4.99 9.3 8.24 14.56 10.87 4.12 2.07 10.87 4.61 15 5.65 5.23 1.32 10.98 1.89 19 1.87 8.12-0.01 14-0.62 20-2.07 4.67-1.12 11.87-3.45 16-5.17 4.12-1.72 11.21-5.29 15.75-7.94 4.54-2.65 8.24-5.16 8.22-5.57-0.02-0.41-1.82-4.01-4-8l-3.97-7.25c-10.85 5.42-17.49 7.95-21.75 9.12-6.28 1.71-9.74 2.03-18.25 1.7-8.72-0.35-11.43-0.86-16-3.04-3.04-1.45-7.49-4.78-9.95-7.45-2.45-2.66-5.56-7.3-6.91-10.33-1.35-3.02-3.04-8.87-3.76-13-0.72-4.12-1.33-9.19-1.35-11.25l-0.03-3.75h88c-0.03-23.14-0.6-31.13-1.54-35.5-0.84-3.85-2.97-9.92-4.74-13.49-1.82-3.68-5.61-8.89-8.73-12-3.15-3.16-8.27-6.87-12-8.71-3.57-1.76-9.41-3.89-12.99-4.73-3.93-0.93-10.86-1.51-17.5-1.48-6.05 0.04-13.7 0.66-17 1.39z"/>
		<path id="Path 2" fill-rule="evenodd" class="s0" d="m187.5 361.29c109.92 0.21 112.09 0.25 117 2.24 2.75 1.11 7.43 3.81 10.39 6 2.97 2.18 7.01 6.22 8.98 8.97 1.97 2.75 4.49 7.25 5.6 10 1.99 4.9 2.04 7.16 2.29 113.5 0.23 95.48 0.07 109.22-1.3 114.5-0.85 3.3-2.75 8.02-4.2 10.5-1.46 2.48-4.48 6.45-6.71 8.84-2.29 2.46-7.09 5.84-11.05 7.8-4.51 2.23-9.49 3.79-14 4.38-3.85 0.5-44.91 0.93-175.5 0.98l-0.09-87.5 28.8-16.62c15.83-9.15 30.48-17.58 36.29-20.88l0.02 47.5-12.26 10.19c-6.74 5.6-14.38 12.12-16.98 14.5-3.61 3.3-4.72 5.01-4.72 7.31-0.01 1.65 0.77 3.8 1.72 4.78 0.94 0.98 2.96 1.77 4.47 1.75 2.03-0.02 5.55-2.52 13.5-9.58 5.91-5.25 11.54-9.97 12.5-10.5 1.64-0.89 1.75 0.26 1.75 18.05 0 12.34 0.4 19.79 1.15 21.25 0.63 1.24 1.64 2.58 2.25 2.98 0.6 0.41 2.23 0.73 3.6 0.73 1.38-0.01 3.3-0.79 4.28-1.74 1.6-1.54 1.78-3.83 1.75-21.97-0.02-11.14 0.19-20.25 0.47-20.25 0.28 0 6.13 4.73 13 10.5 9.32 7.83 13.2 10.49 15.25 10.47 1.51-0.01 3.55-0.8 4.53-1.75 0.98-0.94 1.77-2.51 1.75-3.47-0.02-0.96-0.37-2.5-0.78-3.42-0.41-0.92-8.29-7.89-34.25-29.33v-25c0-13.75 0.22-25 0.5-25 0.28 0 10.06 6.05 43 26.9l4.4 21.3c2.42 11.71 5 22.76 5.75 24.55 0.77 1.85 2.32 3.51 3.6 3.85 1.24 0.32 3.26 0.32 4.5 0 1.24-0.33 2.7-1.73 3.25-3.1 0.77-1.92 0.18-6.28-2.53-18.75-1.94-8.94-3.4-16.57-3.25-16.96 0.15-0.39 2.53 0.69 5.28 2.41 2.75 1.72 10.4 6.2 17 9.96 7.61 4.34 13.1 6.83 15 6.81 1.65-0.01 3.8-0.8 4.78-1.75 0.98-0.94 1.79-2.85 1.79-4.22 0-1.38-0.81-3.26-1.79-4.18-0.98-0.92-9.21-5.79-18.28-10.82-9.07-5.04-17.07-9.68-17.76-10.33-0.99-0.91 2.35-2.26 15-6.09 8.94-2.71 17.06-5.63 18.04-6.5 0.98-0.87 1.76-2.71 1.73-4.08-0.03-1.38-0.84-3.3-1.79-4.28-0.94-0.98-2.84-1.78-4.22-1.76-1.37 0.01-11.5 2.72-22.5 6.03-11 3.3-20.79 6.01-21.75 6.01-0.96 0-10.71-5.74-41.56-25.5l3.66-2.08c2.01-1.15 9.95-5.75 17.65-10.23 7.7-4.47 15.44-8.71 17.19-9.41 2.98-1.19 4.71-0.76 47.21 13.72l2.8-2.11c1.54-1.15 2.93-2.73 3.1-3.5 0.16-0.76-0.18-2.63-0.75-4.14-0.93-2.44-2.59-3.26-14.8-7.3-7.56-2.5-15.1-5.1-16.75-5.79-2.99-1.24-2.97-1.26 15-11.06 9.9-5.4 19.02-10.79 20.28-11.96 1.25-1.18 2.26-3.15 2.25-4.39-0.02-1.24-0.93-3.15-2.03-4.25-1.1-1.1-3.01-1.99-4.25-1.98-1.24 0.01-10.35 4.57-20.25 10.14-9.9 5.57-18.34 10.29-18.75 10.48-0.41 0.2-0.1-1.78 0.69-4.39 0.79-2.61 3.04-10.38 5-17.25 1.96-6.88 3.57-13.29 3.56-14.25 0-0.96-0.9-2.65-2-3.75-1.1-1.1-3.01-2.01-4.25-2.03-1.24-0.02-3.04 0.77-4 1.75-0.99 1.02-4.56 11.86-8.3 25.28-3.6 12.92-7.09 23.85-7.75 24.27-0.66 0.43-10.31 5.94-21.45 12.25-11.14 6.32-20.47 11.48-20.75 11.48-0.28 0-0.47-11.59-0.38-51.5l17.17-13c9.44-7.15 17.84-14.22 18.68-15.7 1.42-2.51 1.37-2.91-0.57-5.5-1.15-1.54-3.18-2.93-4.5-3.1-1.77-0.22-6.11 2.59-30.9 21.8v-47l-2.75-2.03c-1.51-1.12-3.2-2.04-3.75-2.05-0.55 0-2.12 0.87-6 3.9l-1 47.41-13.25-10.61c-9.71-7.79-13.98-10.61-16-10.59-1.51 0.01-3.55 0.8-4.53 1.75-0.98 0.94-1.77 2.96-1.75 4.47 0.02 2.01 1.33 3.89 4.87 7 2.66 2.34 10.76 8.75 31.16 24.25v43.5l-8.25-6.34c-4.54-3.49-11.4-8.58-15.25-11.32-3.85-2.74-11.5-7.84-17-11.35-5.5-3.5-13.82-8.25-18.5-10.56-8.11-4.01-8.55-4.4-9.69-8.57-0.66-2.4-2.57-6.27-4.25-8.61-1.89-2.62-5.08-5.27-8.31-6.92-3.97-2.02-6.71-2.66-11.25-2.65-3.3 0-7.58 0.68-9.5 1.5-1.92 0.81-5.22 3.02-7.33 4.9-2.1 1.88-4.69 5.22-5.73 7.42-1.23 2.57-1.91 6.15-1.9 10 0 3.62 0.72 7.59 1.81 10 0.99 2.2 3.79 5.69 6.23 7.76 2.43 2.06 5.66 3.98 9.92 4.74l0.01 32.75c0.01 32.32 0.04 32.82 2.37 37.75 1.29 2.75 3.43 5.96 4.74 7.14 1.31 1.18 4.97 3.76 13.88 9.36v88l-10.75-0.03c-5.91-0.02-14.13-0.48-18.25-1.03-4.91-0.65-9.7-2.11-13.88-4.22-3.79-1.91-8.35-5.35-11.25-8.47-2.68-2.89-6.33-8.29-11.37-18.75v-224l3.05-6.5c1.67-3.58 5.05-8.69 7.5-11.37 2.45-2.67 6.47-6.03 8.95-7.46 2.48-1.42 6.97-3.38 10-4.34 5.11-1.62 13.35-1.73 117.5-1.54zm315.64 71.05c0.35 0.64 6.76 19.27 27.86 81.66h-28c-15.4 0-28-0.34-28-0.75 0.01-0.41 6.19-19.05 13.75-41.41 7.56-22.36 14.04-40.14 14.39-39.5zm-411.39 8.72c2.43-0.04 4.13 0.82 6.75 3.44 2.67 2.67 3.5 4.33 3.5 7 0 2.63-0.85 4.37-3.4 7-2.8 2.88-4.13 3.5-7.5 3.5-3.22 0-4.74-0.64-7.1-3-2.39-2.39-3-3.87-3.01-7.25 0-2.34 0.72-5.29 1.6-6.57 0.89-1.28 2.58-2.71 3.76-3.19 1.18-0.47 3.61-0.89 5.4-0.93zm22.2 21.96c0.3 0.01 3.92 1.88 8.05 4.15 4.12 2.27 12.68 7.49 19 11.61 6.32 4.11 16.45 11.18 22.5 15.71 6.05 4.53 12.8 9.8 19 15.17l-16 9.56c-8.8 5.25-24.44 14.33-53.5 30.78l-6-3.5c-3.61-2.1-6.6-4.7-7.5-6.5-1.24-2.47-1.5-8.5-1.54-65.5l3.77-1.71c2.07-0.94 5.55-3.53 7.72-5.75 2.17-2.22 4.2-4.03 4.5-4.02zm828.2 4.28c4.48 0.16 6.56 0.83 10 3.24 3.36 2.35 4.89 4.39 6.72 9 1.91 4.82 2.39 7.97 2.63 26.96l-19.5 0.67c-10.73 0.37-21.41 0.93-23.75 1.25-3.92 0.53-4.25 0.41-4.22-1.67 0.02-1.24 0.65-5.63 1.4-9.75 0.75-4.13 2.39-10.2 3.65-13.5 1.4-3.67 3.87-7.56 6.36-10.03 2.23-2.22 5.63-4.56 7.56-5.2 1.92-0.64 6.04-1.08 9.15-0.97z"/>
	</g>
</svg>